<?xml version="1.0" encoding="utf-8"?>
<!-- Svg Vector Icons : http://www.onlinewebfonts.com/icon -->
<!DOCTYPE svg PUBLIC "-//W3C//DTD SVG 1.1//EN" "http://www.w3.org/Graphics/SVG/1.1/DTD/svg11.dtd">
<svg version="1.1" xmlns="http://www.w3.org/2000/svg" xmlns:xlink="http://www.w3.org/1999/xlink" x="0px" y="0px" viewBox="0 0 1000 1000" enable-background="new 0 0 1000 1000" xml:space="preserve">
<metadata> Svg Vector Icons : http://www.onlinewebfonts.com/icon </metadata>
<g><g transform="translate(0.000000,512.000000) scale(0.100000,-0.100000)"><path d="M1116.2,3617.2c-355.9-59.3-711.9-331.1-880.3-671.7c-132-264.1-134-292.8-135.9-1722.3V-36h612.4h612.4v1837.1v1837.1l-51.7-1.9C1242.5,3634.4,1173.6,3626.8,1116.2,3617.2z"/><path d="M1937.1,1801.1V-36h294.7c250.7,0,296.6,3.8,306.2,30.6c5.7,17.2,11.5,843.9,11.5,1837.1v1806.5h-306.2h-306.2V1801.1z"/><path d="M3161.9,2224V807.9l170.3,128.2c394.2,296.6,832.5,476.5,1316.6,541.6c231.5,30.6,713.8,11.5,926.2-38.3c356-80.4,700.4-229.6,989.4-426.8c302.4-206.7,706.2-658.3,863.1-966.4l40.2-82.3h1217.1H9900l-7.6,1326.2c-5.7,1199.9-9.6,1335.8-40.2,1439.1c-120.6,405.7-455.5,740.6-863.1,863.1c-107.2,32.5-283.2,36.4-2970,40.2l-2857.1,7.6V2224z"/><path d="M4654.6,853.8c-480.3-80.4-958.8-346.4-1261.1-698.5C3246.1-15,3183-108.8,3087.3-298.2c-254.5-507.1-300.4-1088.9-126.3-1619c53.6-164.6,176.1-419.1,264.1-547.3c333-484.2,870.7-824.8,1448.7-910.9c1169.3-178,2263.9,623.9,2440,1789.3C7238.1-770.9,6884,46.2,6202.8,513.2C5774.1,807.9,5167.4,941.9,4654.6,853.8z"/></g></g>
</svg>