<?xml version="1.0" encoding="utf-8"?>
<!-- Svg Vector Icons : http://www.onlinewebfonts.com/icon -->
<!DOCTYPE svg PUBLIC "-//W3C//DTD SVG 1.1//EN" "http://www.w3.org/Graphics/SVG/1.1/DTD/svg11.dtd">
<svg version="1.1" xmlns="http://www.w3.org/2000/svg" xmlns:xlink="http://www.w3.org/1999/xlink" x="0px" y="0px" viewBox="0 0 1000 1000" enable-background="new 0 0 1000 1000" xml:space="preserve">
<metadata> Svg Vector Icons : http://www.onlinewebfonts.com/icon </metadata>
<g><g><path d="M949,285.7c-85-12.2-175.5-21.1-270-26.1l157.8-157.8l-61.3-61.3L560.7,255.5c-20.1-0.4-40.3-0.5-60.7-0.5l0,0L255,10l-61.3,61.3l185.9,185.9C263.9,261.2,153.4,271,51,285.7c-26.3,103.1-41,217-41,336.8s14.6,233.7,41,336.8C188.4,979,340.3,990,500,990c159.7,0,311.6-11,449-30.7c26.4-103.1,41-217,41-336.8S975.4,388.8,949,285.7z M836.8,847c-103.1,13.2-217,20.5-336.8,20.5c-119.8,0-233.7-7.3-336.8-20.5c-19.8-68.7-30.7-144.7-30.7-224.5c0-79.8,11-155.8,30.7-224.5c103.1-13.2,217-20.5,336.8-20.5c119.8,0,233.7,7.3,336.8,20.5c19.8,68.7,30.7,144.7,30.7,224.5C867.5,702.3,856.5,778.3,836.8,847z"/></g><g></g><g></g><g></g><g></g><g></g><g></g><g></g><g></g><g></g><g></g><g></g><g></g><g></g><g></g><g></g></g>
</svg>