<?xml version="1.0" encoding="utf-8"?>
<!-- Svg Vector Icons : http://www.onlinewebfonts.com/icon -->
<!DOCTYPE svg PUBLIC "-//W3C//DTD SVG 1.1//EN" "http://www.w3.org/Graphics/SVG/1.1/DTD/svg11.dtd">
<svg version="1.1" xmlns="http://www.w3.org/2000/svg" xmlns:xlink="http://www.w3.org/1999/xlink" x="0px" y="0px" viewBox="0 0 1000 1000" enable-background="new 0 0 1000 1000" xml:space="preserve">
<metadata> Svg Vector Icons : http://www.onlinewebfonts.com/icon </metadata>
<g><path d="M917.5,734.2c0,32-2,79.4-5.9,142.2c-2.6,32.6-15.2,58.7-37.7,77.9c-22.6,19.3-50.2,29.5-82.9,30.8c-64.7,3.2-161.7,4.9-291,4.9c-130.1,0-227-1.7-291-4.9c-32.7-1.3-60.3-11.6-82.8-30.8C103.6,935,91,909,88.4,876.4c-3.9-62.7-5.8-110.1-5.8-142.2c0-32,2-79.4,5.8-142.1c2.6-32.6,15.2-58.6,37.8-77.9c22.5-19.2,50.1-29.5,82.8-30.9c64-3.2,161-4.9,291-4.9c130,0,227,1.6,291,4.9c32.7,1.3,60.3,11.6,82.9,30.9c22.5,19.3,35,45.3,37.7,77.9C915.5,654.8,917.5,702.2,917.5,734.2z M262.9,606.8h59.7v-49H147.2v49H206V894h56.9V606.8z M318.7,10h71.6l-53.9,161.7c-2.7,7.8-5.8,16.8-9.8,26.9c-4,10.1-7.3,19.3-10.3,27.4c-3,8.2-5.4,17.2-7.3,26.9v172.5h-70.6c0-0.7,0-15.8,0-45.6c0-29.7,0-56.5,0-80.3c0-23.9,0-36.8,0-38.7c-1.3-7.8-10.7-35.6-28.4-83.3L154.1,10h71.5l45.1,165.6h4.9L318.7,10z M415.7,894h50V646h-50v188.1c-11.1,12.5-21.2,18.6-30.4,18.6c-8.5,0-12.8-5.5-12.8-16.6V646h-50.9v208.7c0,28.7,11.7,43.1,35.3,43.1c19.6,0,39.2-10.4,58.8-31.3V894z M568.5,190.3v158.8c0,27.4-8.2,48.3-24.5,62.7c-16.3,14.4-38.5,21.5-66.6,21.5c-26.8,0-48.5-7.7-65.2-23c-16.6-15.3-25-36.1-25-62.2V189.4c0-25.5,9-44.9,27-58.3c18-13.4,40-20.1,66.2-20.1c24.8,0,45.7,7.2,62.7,21.6C560.1,146.9,568.5,166.2,568.5,190.3z M504.9,354V186.4c0-6.5-2.9-11.9-8.8-16.2c-5.8-4.2-12.1-6.3-18.6-6.3c-6.5,0-12.4,2.1-17.7,6.3c-5.2,4.3-7.8,9.7-7.8,16.2V354c0,17,8.4,25.5,25.5,25.5C495.7,379.5,504.9,371,504.9,354z M660.7,842V704.8c0-41.1-16.4-61.7-49-61.7c-16.4,0-31.4,7.5-45.1,22.5V557.8h-50.9v336.2h50.9v-19.6c14.5,15.1,30.4,22.5,48.1,22.5C645.4,896.9,660.7,878.6,660.7,842z M608.8,706.8v130.3c0,13.8-5.9,20.6-17.7,20.6c-9.1,0-17.3-3.6-24.5-10.8V692.1c6.5-6.6,13.7-9.8,21.6-9.8C601.9,682.2,608.8,690.5,608.8,706.8z M800.8,118.8v306.7h-62.7v-34.3c-24.2,25.5-48.4,38.2-72.5,38.2c-29.4,0-44.1-18.3-44.1-54.9V118.8h62.7V354c0,13.7,5.5,20.6,16.7,20.6c11,0,23.5-7.8,37.2-23.5V118.8H800.8z M847.9,823.4v-18.7h-52c0,1.3,0.2,5.6,0.5,12.8c0.3,7.2,0.3,12.2,0,15.2c-0.4,2.9-1.2,6.6-2.4,11.2c-1.3,4.5-3.6,7.8-6.9,9.8c-3.3,2-7.9,2.9-13.7,2.9c-6.6,0-11.6-2-15.2-5.8c-3.6-3.9-5.6-7.9-5.9-11.8c-0.3-3.9-0.5-9.5-0.5-16.6v-47.1h96v-62.7c0-22.9-6.2-40.8-18.6-53.9c-12.4-13.1-30-19.6-52.9-19.6c-22.2,0-40.7,6.7-55.4,20.1c-14.7,13.4-22,31.3-22,53.5v110.8c0,23.5,6.4,42.3,19.1,56.3c12.8,14,30.9,21.1,54.4,21.1C822.7,900.8,847.9,875,847.9,823.4z M795.9,709.7v27.5h-44.1v-27.5c0-17.6,7.5-26.4,22.6-26.4C788.7,683.3,795.9,692.1,795.9,709.7z"/></g>
</svg>