<?xml version="1.0" encoding="utf-8"?>
<!-- Svg Vector Icons : http://www.onlinewebfonts.com/icon -->
<!DOCTYPE svg PUBLIC "-//W3C//DTD SVG 1.1//EN" "http://www.w3.org/Graphics/SVG/1.1/DTD/svg11.dtd">
<svg version="1.1" xmlns="http://www.w3.org/2000/svg" xmlns:xlink="http://www.w3.org/1999/xlink" x="0px" y="0px" viewBox="0 0 1000 1000" enable-background="new 0 0 1000 1000" xml:space="preserve">
<metadata> Svg Vector Icons : http://www.onlinewebfonts.com/icon </metadata>
<g><path d="M501.7,234.7v389.7h-3.4c-96.9-1.5-156.4,72.3-156.4,72.3C-88,1130.7,3.1,505,56.7,382.8C98.1,288.4,210.2,93.7,342.9,169c105.4,59.7,146.2,64.6,146.2,64.6L501.7,234.7z M303,229.1c-87.5,0-158.5,70.9-158.5,158.5S215.4,546,303,546c87.5,0,158.5-70.9,158.5-158.5S390.5,229.1,303,229.1z"/><path d="M510.9,233.6c0,0,40.8-4.9,146.2-64.6c132.7-75.2,244.8,119.5,286.2,213.9C996.9,505,1088,1130.7,658.1,696.8c0,0-59.5-73.9-156.4-72.3l0,0V234.7L510.9,233.6z M714.6,275.6c-31,0-56.2,17.6-56.2,39.3s25.2,39.3,56.2,39.3c31,0,56.2-17.6,56.2-39.3S745.6,275.6,714.6,275.6z M625.8,356.5c-31,0-56.2,17.6-56.2,39.3s25.2,39.3,56.2,39.3c31,0,56.2-17.6,56.2-39.3S656.8,356.5,625.8,356.5z M714.6,434.2c-31,0-56.2,17.6-56.2,39.3c0,21.7,25.2,39.3,56.2,39.3c31,0,56.2-17.6,56.2-39.3C770.8,451.8,745.6,434.2,714.6,434.2z M802.2,356.5c-31,0-56.2,17.6-56.2,39.3s25.2,39.3,56.2,39.3c31,0,56.2-17.6,56.2-39.3S833.3,356.5,802.2,356.5z"/></g>
</svg>