<?xml version="1.0" encoding="utf-8"?>
<!-- Svg Vector Icons : http://www.onlinewebfonts.com/icon -->
<!DOCTYPE svg PUBLIC "-//W3C//DTD SVG 1.1//EN" "http://www.w3.org/Graphics/SVG/1.1/DTD/svg11.dtd">
<svg version="1.1" xmlns="http://www.w3.org/2000/svg" xmlns:xlink="http://www.w3.org/1999/xlink" x="0px" y="0px" viewBox="0 0 1000 1000" enable-background="new 0 0 1000 1000" xml:space="preserve">
<g><g transform="translate(0.000000,511.000000) scale(0.100000,-0.100000)"><path d="M4339.2,4213.6c-774-108-1434-704-1634-1472c-74-278-74-634-2-908c314-1208,1636-1840,2716-1300c336,168,596,398,800,708c418,634,420,1438,6,2078c-112,174-352,426-520,546c-172,122-468,258-668,308C4839.3,4221.6,4521.2,4239.6,4339.2,4213.6z M4977.3,3863.6c160-36,466-172,580-258c130-98,302-280,390-414c162-242,246-498,264-808c38-670-294-1258-880-1552c-252-128-416-164-744-164c-246,0-302,6-456,54c-208,62-340,126-506,242c-776,550-884,1744-222,2446C3793.2,3821.6,4391.2,3995.6,4977.3,3863.6z"/><path d="M1165.2,2773.6c-496-76-912-454-1038-942c-46-176-32-498,30-676c202-572,836-940,1402-814c396,88,716,348,888,722c156,338,150,676-24,1028c-96,200-336,444-536,546C1649.2,2759.6,1389.2,2809.6,1165.2,2773.6z M1477.2,2451.6c264-42,530-220,646-434c196-362,134-842-146-1122c-398-398-1118-326-1420,142c-108,166-146,326-136,570c6,176,14,212,78,348c124,258,336,426,620,486C1279.2,2477.6,1315.2,2477.6,1477.2,2451.6z"/><path d="M8847.3,135.5c-32-20-278-258-544-526c-460-462-486-494-486-564c0-84,72-172,140-172c82,0,158,64,646,556c486,490,508,516,496,624c-6,44-98,120-148,120C8927.3,173.5,8881.3,155.5,8847.3,135.5z"/><path d="M725.2-74.5c-90-40-204-148-254-240l-44-82v-1520c0-1398,2-1526,34-1582c62-114,142-194,246-240l100-48h2408c2400,0,2410,0,2496,42c108,52,232,192,262,294c34,112,34,2956.1,0,3068.1c-30,102-164,252-266,298c-76,36-196,38-2500,36C1229.2-48.5,775.2-52.5,725.2-74.5z M5645.3-410.5c28-40,32-216,32-1506c0-1290-4-1466-32-1506l-30-44h-2396c-2036,0-2400,4-2434,28c-38,28-38,66-38,1518c0,1232,4,1494,28,1520c24,32,220,34,2434,34h2406L5645.3-410.5z"/><path d="M7177.3-824.5c-148-86-396-228-550-314c-182-102-288-176-304-208c-36-72-36-1070,0-1140c18-34,190-144,564-356c298-170,564-312,594-318c42-8,68,2,116,50l60,60v1124c0,946-4,1130-30,1178C7565.3-626.5,7503.3-636.5,7177.3-824.5z M7333.3-2326.5l-6-398l-354,202l-356,200v406v408l356,200l354,200l6-410C7335.3-1744.5,7335.3-2108.5,7333.3-2326.5z"/><path d="M9477.3-720.5c-330-124-1582-660-1614-690c-54-50-60-146-16-210c68-98,96-90,954,264c836,344,896,378,896,486C9695.3-760.5,9579.3-682.5,9477.3-720.5z"/><path d="M7907.3-1770.5c-62-34-90-78-90-144c2-76,36-124,108-152c78-28,1784-28,1870,2c90,32,128,126,90,228c-34,86-78,90-1032,90C8235.3-1748.5,7935.3-1754.5,7907.3-1770.5z"/><path d="M7867.3-2196.5c-66-64-68-168-4-224c60-56,1606-692,1680-692c72,0,154,84,154,156c0,104-66,140-888,480c-438,182-818,330-846,330C7937.3-2146.5,7893.3-2168.5,7867.3-2196.5z"/><path d="M7867.3-2756.5c-34-32-50-70-50-114c0-58,52-118,536-600c572-574,582-580,688-496c62,48,78,118,46,194c-14,30-254,284-534,562c-454,452-514,504-572,504C7937.3-2706.5,7899.3-2724.5,7867.3-2756.5z"/></g></g>
</svg>
