<?xml version="1.0" encoding="utf-8"?>
<!-- Svg Vector Icons : http://www.onlinewebfonts.com/icon -->
<!DOCTYPE svg PUBLIC "-//W3C//DTD SVG 1.1//EN" "http://www.w3.org/Graphics/SVG/1.1/DTD/svg11.dtd">
<svg version="1.1" xmlns="http://www.w3.org/2000/svg" xmlns:xlink="http://www.w3.org/1999/xlink" x="0px" y="0px" viewBox="0 0 1000 1000" enable-background="new 0 0 1000 1000" xml:space="preserve">
<metadata> Svg Vector Icons : http://www.onlinewebfonts.com/icon </metadata>
<g><g><g><path d="M808,102.1C740.1,51,648.7,19.8,564.2,11.9c-207.3-18-409,92.9-483.2,289.4C-24.8,581.6,138,867,436.7,893.8c20.5,1.8,41.4,0.2,61.8-0.5c76.6-2.2,111.5,30.4,167.6,72.1c38.6,28.6,112.8,33.4,154.1,7.9c127.5-78.5-85.1-109.9-29.7-181c60.9-78.2,108.6-129.3,137.5-229.7C976.8,393.5,954.4,212.2,808,102.1z M829.1,179c5.2,6.5,8.9,12.2,8.5,12.5c-0.2,0.2-0.4,0.4-0.6,0.6c-19.4,18.5-47.2,44.6-80.9,76.2c-8.7,8.1-17.6,7.8-20.4-0.5c-2.8-8.3,1.7-21.4,10.4-29.4c8.8-8,17.5-16.1,26.3-24.1c10.5-10.6,21.2-21.2,31.8-31.7C812.6,174.3,823.9,172.5,829.1,179z M804.7,151.8c5.2,5.3,2.5,16.5-5.8,25c-18.5,18.8-37,37.6-55.4,56.4c-8.3,8.5-17.4,9.4-20.7,2.3c-3.3-7,0.4-19.5,8.7-28c16.4-16.8,32.7-33.4,48.7-49.8C788.5,149.2,799.6,146.5,804.7,151.8z M152.7,234.3c24.1-42,54.7-79.6,90.7-110.6c9-7.7,9.9-6.7,1.6,1.7c-5.6,5.7-11.2,11.4-16.9,17.3c-1.6,1.6-3.2,3.2-4.8,4.8c-2.6,2.6,2.1-1.9,10.7-10.1c7.1-6.8,14-13.5,21-20.2c8.6-8.2,23.3-20.5,33.2-26.9c17-10.9,34.8-20.5,53.5-28.6c10.9-4.7,13-1.4,4.4,6.8c-56.2,53.7-119.1,114.3-187.7,180c-8.5,8.2-15.6,12.6-15.8,9.8C142.6,255.4,146.8,244.6,152.7,234.3z M123.8,320.6c4.3-11.1,10.3-23.7,14.5-34.9c4.2-11.1,11.8-27.4,20.3-35.7C226.2,185.1,289.4,124.5,349,67.3c8.6-8.2,24.6-18.2,35.9-21.6c8-2.4,16-4.5,24.2-6.5c11.5-2.7,14.2,2.5,5.8,10.8c-88.4,87.5-194.5,190.5-281,276.1C125.5,334.6,119.5,331.6,123.8,320.6z M788.8,884.9c1.9,1,3.7,1.9,5.4,2.9c10.2,6.1,7.7,20.6,2.2,25.9c-5.5,5.3-18.5,14.1-29.5,18.3c-11.2,4.3-24.8,8.7-40.9,13.2c-11.4,3.2-22,4.8-23.5,3.8c-1.5-1,4-8.6,12.3-17.1l39-39.6C762.1,883.9,778.1,879.7,788.8,884.9z M899.9,325.5c2,8.4-3.7,22-12.2,30.3c-10.2,9.9-20.4,19.7-30.5,29.6c-8.5,8.2-8.3,8.5,0.6,0.6c9.9-8.7,19.8-17.6,30-26.5c8.9-7.9,17.8-4.8,19.3,7c1.7,14,2.8,28.4,2.9,43.1c0.1,13.1-0.4,26.4-1.4,39.6c-0.9,11.9-8.7,28.2-17.2,36.5c-36.7,36.4-73.6,73.2-110.8,110.5c-8.4,8.4-7.9,18,0.5,22.4c8.4,4.4,21.5,1.7,29.6-7c25.2-27,50.1-53.7,74.8-80.2c8.1-8.6,12.9-6.2,10.3,5.3c-1.9,8.4-4,16.7-6.2,24.9c-3.1,11.4-12.6,27.6-20.7,36.2c-10.2,10.8-20.4,21.5-30.4,32.1c-8.1,8.6-13.5,16.1-11.9,16.6c1.6,0.6,9.7-5.9,18.1-14.3c6.3-6.4,12.6-12.7,18.8-19c8.3-8.5,12.1-6.1,7.9,4.9c-10,26.8-21.8,52.9-35.2,77.5c-12.9,23.7-118.2,114.9-104.1,143.5c4.7,9.5,7.5,15.9,11.5,21.2c7.3,9.4,10.1,19.9,1.8,28.3c-12.6,12.9-25.1,25.8-37.7,38.6c-8.3,8.5-22.8,9.7-31.1,1.3c-2.6-2.6-5.2-5.4-7.7-8.2c-7.9-8.8-8.1-22.4-1-29.8c7.1-7.4,4.7-13.1-5.5-13c-6.7,0.1-12.8,0.1-18.4,0.1c-1.5,0-3.3-0.1-5.4-0.2c-3-0.2-6.3,0.5-7.4,1.5c-1,1.1-10.3-3-21.7-6.1c-5.9-1.6-12.1-2.7-18.3-3.3c-11.8-1.3-21-1.3-20.4-1.8c0.5-0.6-8.4-3.3-19.8-6.6c-2.5-0.7-5-1.4-7.6-2.2c-11.3-3.4-25.6-1.6-32,4.6c-6.4,6.2-13.7,11.4-16.4,11.5c-1.6,0.1-3.2,0.1-4.8,0.2c-18.3,0.5-36.3-0.3-53.9-2.3c-11.8-1.3-14.5-9.8-6.1-18.2c4.7-4.7,9.4-9.4,14.3-14.3c8.4-8.4,10-17.9,3.7-21.3c-6.3-3.5-18.3,0-27.1,8c-7.6,7-15.3,14-22.9,21c-8.7,8-25.1,12.1-36.4,8.4c-10.8-3.5-21.4-7.5-31.7-12c-10.9-4.7-12.7-15.9-4.4-24.4c11.8-12,23.7-24,35.5-36c8.3-8.4,13.7-16.5,12-18.1c-1.7-1.6-10.1,3.7-18.8,11.7c-13.4,12.4-26.7,24.7-40.1,37.1c-8.7,8-22.2,11.1-29.9,6.5c-7.7-4.6-6.6-15.1,2.2-23c15.4-13.9,30.9-27.9,46.3-41.9c8.8-8,12-18.7,7.3-24.1c-4.7-5.4-15.2-3.4-23.9,4.7c-16.6,15.5-33.3,31-49.9,46.5c-8.7,8.1-23.4,8.8-32.4,1.2c-7.8-6.7-15.4-13.6-22.7-20.9c-8.4-8.4-7.8-22.1,0.8-30.3c21.2-20,42.7-40.1,64.4-60.5c8.7-8.1,13.2-19.7,10.4-26.1c-2.7-6.4-5.1-11.3-5.5-11c-0.2,0.3-0.5,0.5-0.7,0.7c-26.4,28.4-53,56.7-79.6,84.9c-8.1,8.6-20.9,8.3-28-1.3c-0.1-0.2-0.3-0.4-0.5-0.6c-7.1-9.5-5.5-24.4,2.9-32.7c25.9-25.8,51.9-51.7,78-77.5c8.4-8.4,15.1-15.8,14.8-16.6c-0.2-0.8-0.9-1-1.4-0.4c-0.6,0.5-7.9,7.8-16.3,16.2c-25.5,25.5-50.8,51.1-76.2,76.7c-8.4,8.4-17.8,11.2-20.9,6c-3.1-5.1,1.2-16.1,9.6-24.5c11.5-11.5,22.9-23,34.4-34.4c16.6-16.5,33.3-32.8,49.9-49.3c8.4-8.4,14.2-20.5,13.1-27.2c-1.1-6.7-8.5-5.2-16.7,3.3c-29.8,30.7-59.7,61.4-89.5,92.2c-8.2,8.5-15.8,13.7-16.9,11.5c-1.1-2.2-5.7-12.3-10.6-22.4c-4.9-10.2,1.2-26.4,10-34.3c32-28.8,71.8-55,102.9-82.7c8.9-7.9,15-24.4,14.9-36.3c0-2.2,0-4.3,0-6.5c0.1-11.9-6.4-14.7-15.5-7.2c-32.2,26.5-77.5,53.9-109.9,80.8c-9.1,7.6-18.3,5-19.7-6.8c-0.6-5.3-0.9-10.3-1-15.1c-0.3-11.8,7.8-27.9,16.9-35.6c34.6-29.3,86.9-68.2,121.2-97.8c9-7.8,16.5-18.1,17.2-22.7c0.8-4.6-5.3-1.5-14.1,6.5c-35.3,32.4-89.3,74.5-124.7,106.9c-8.7,8-15.2,11.2-15,6.6c0.2-3.8,0.3-6.7,0.3-8.3c0-2.8,0.6-7.3,0.6-16.8c0-9.3,6.2-23.7,14.6-32c42.1-41.6,104.8-97.9,146.6-138.8c8.5-8.3,18.4-24.2,22.9-35.2c2-4.9,4.1-9.7,6.2-14.3c4.9-10.8,2.4-12.7-6.2-4.6c-0.4,0.4-0.7,0.7-1.1,1c-8.7,8.1-8.9,7.8-0.4-0.5c1.1-1.1,2.2-2.2,3.3-3.2c8.5-8.3,15.6-15.4,15.9-15.9c0.3-0.5-6.3,5.8-14.8,14c-10.7,10.4-21.6,21-32.6,31.7c-42,38.2-97.2,87.4-141.3,129.3c-8.6,8.2-14.6,5.2-10.5-5.9c0.7-1.8,1.3-3.7,2-5.6c3.9-11.2,11.3-27.5,19.8-35.8C227.1,267,346.6,152.8,448.1,54c0,0,5.8-5.4,13-12.2c7.2-6.7,22.3-12.8,33.9-13c11.6-0.2,14,6.9,5.6,15.2c-2.1,2.1-4.2,4.1-6.4,6.2c-8.5,8.3-6.8,10.6,4,5.8c2.8-1.2,5.6-2.4,8.4-3.6c10.9-4.6,23.1-11,26.9-14.8c3.8-3.8,16.5-6,28.2-4.3c81,11.7,154.2,43.3,212.4,90.8c9.2,7.5,13.3,16.8,9.6,20.3c-2.2,2-4.4,4.1-6.6,6.3c-20.7,19.8-37.1,35.5-50.4,48.2c-8.5,8.2-20.2,6.5-27.1-3.2c-4.6-6.5-9.5-12.7-14.7-18.6c-7.9-8.9-8.7-22.4-0.8-31.2c4.2-4.7,8.3-9.4,12.5-14c7.9-8.8,13.1-16,11.6-16c-1.7,0-2.6,0.1-2.6,0.1s-7.4,0.4-19.6,3c-10.7,2.3-23.7,9.5-29.2,15.2c-5.5,5.7-18,5-28.7-0.3c-27.3-13.4-59.5-20.9-97.3-20.2C379.3,116.2,295.9,263,273.1,395c-2,11.7-3.1,21.7-3.1,22.4c0,0.5-0.2,0.8-0.3,1.1c-8.2,119.4,9.5,242.5,110.9,318.2c36.3,27.2,105.7,51.3,149.4,27.3c17.6-9.7,49.7-32.3,20.9-55.3c-9.1-8.6-19.3-15.6-30.8-20.6c-33.5-12.5-31.9-31.4,4.7-56.8c9.7-6.7,22.8-10.6,28.2-8.8c5.5,1.8,5.9,7.6,1.2,12.1c-4.7,4.6-4.6,4.6,0.2,0.1c4.8-4.5,17.5-4.2,27.4,2.2c2.6,1.7,5.1,3.3,7.6,5c9.8,6.6,10.9,18.2,2.2,26.2c-6.5,6-12.7,11.7-18.7,17.2c-8.7,8-12.6,17.6-8.5,21.2c4.1,3.6,14.3-0.5,22.7-8.9c6.9-7,14-14,21-21.1c8.4-8.4,16.6-14.6,18.5-13.9c1.1,0.4,2.2,0.9,3.4,1.2c56.6,17.2,85.6-38.3,101.5-96.6c3.1-11.4,11.8-27.7,20.1-36.2c19.5-20,39.1-39.9,58.6-59.9c8.3-8.5,7.8-8.9-0.9-1C791,486.6,773,502.9,755.2,519c-8.8,7.9-14,5-12.1-6.7c3.1-18.5,5.2-34.7,6.7-45.4c0.5-3.2,0.9-6.5,1.3-9.8c0.6-5.4,8-16.4,16.6-24.6c39.8-37.9,77.3-73.7,112.5-107.3C889.2,317.1,898,317.1,899.9,325.5z M446.2,673.4c15.6,17.4,30.7,26.7,51,37.9c72.6,39.8-20.6,37.9-23.5,37.1c-29.9-7.8-55.5-26.4-78.5-46.2c-82.7-71.3-90.6-192.7-83.9-293.4C325.7,296,392,117.9,535.9,134C751.6,158.2,729,451.2,681,596.8c-19.9,60.4-39.2,28.5-79.1,14.5c-29.4-10.3-64.2-20.8-96-15.6C477.1,600.5,410.8,634,446.2,673.4z M780,416.3c32.4-31.9,69.8-68.6,99.1-97.5c8.4-8.3,8.5-8.3,0,0.1C845.9,351.7,812.7,384.2,780,416.3C771.6,424.6,771.5,424.6,780,416.3z M884.5,274.6c1,2.5,1.9,5.1,2.9,7.7c4.1,11.1-0.1,27.1-8.6,35.3c-37.1,36.3-73.9,72.2-110.1,107.7c-8.5,8.3-14.4,5.4-13.9-6.5c0.5-9.7,0.6-19.4,0.4-29.2c-0.2-11.9,6.2-28.1,14.9-36.1c30.1-28.1,60.3-56.1,90.4-84.1C869,261.3,880.1,263.5,884.5,274.6z M847.6,243.8c-27,25.1-54.1,50.2-81.1,75.3c-8.7,8.1-16.8,6.9-18.5-2.5c-1.8-9.4,3.6-23.4,12.3-31.5c19.8-18.2,44.2-40.7,71.9-66.3c8.7-8,19.4-9.1,23.7-2.2C860.2,223.5,856.4,235.7,847.6,243.8z"/><path d="M702.6,698c-7.9-5.3-21.8-1.7-30.1,6.7c-6.5,6.6-13,13.2-19.6,19.8c-3.6,3.6-7.3,7.3-11,11c-6.1,6-3.5,13.8,6,16.1c6.8,1.7,12.8,2.6,17.5,2.8c1.7,0.1,3.6,0.2,5.7,0.2c3.1,0,12.2-7,20.3-15.6c3.9-4.1,7.7-8.3,11.6-12.4c8.1-8.7,14.3-16.2,13.9-16.8c-0.3-0.4-0.5-0.7-0.9-1C711.8,704.7,707.3,701.1,702.6,698z"/><path d="M736.1,136c8.5-8.3,8.3-8.5-0.1-0.1c-1,0.9-2,1.9-3,2.9c-8.4,8.4-8.4,8.4,0.1,0.1C734.1,137.9,735.1,136.9,736.1,136z"/></g></g><g></g><g></g><g></g><g></g><g></g><g></g><g></g><g></g><g></g><g></g><g></g><g></g><g></g><g></g><g></g></g>
</svg>