<?xml version="1.0" encoding="utf-8"?>
<!-- Svg Vector Icons : http://www.onlinewebfonts.com/icon -->
<!DOCTYPE svg PUBLIC "-//W3C//DTD SVG 1.1//EN" "http://www.w3.org/Graphics/SVG/1.1/DTD/svg11.dtd">
<svg version="1.1" xmlns="http://www.w3.org/2000/svg" xmlns:xlink="http://www.w3.org/1999/xlink" x="0px" y="0px" viewBox="0 0 1000 1000" enable-background="new 0 0 1000 1000" xml:space="preserve">
<metadata> Svg Vector Icons : http://www.onlinewebfonts.com/icon </metadata>
<g><g transform="translate(0.000000,512.000000) scale(0.100000,-0.100000)"><path d="M1899.2,3216V1416.8h-497.7c-407.7,0-511.1-5.7-570.4-28.7c-145.5-61.3-233.5-195.2-233.5-354.1v-95.7h-86.1h-86.1v354.1c0,352.2,0,356-47.9,402c-63.2,65.1-166.5,65.1-229.7,0l-47.9-45.9V785.1c0-884.3,1.9-914.9,74.6-970.4c53.6-42.1,145.5-28.7,201,24.9l49.8,51.7V253v361.8l82.3-5.7l80.4-5.7l11.5-116.8C620.6,270.3,748.9,140.1,959.4,121l116.8-11.5v-321.6v-323.5H750.8H425.4v-411.5v-411.5h-76.6h-76.6v-162.7V-1684h325.4H923v162.7v162.7h-86.1h-86.1v248.8V-861h162.7h162.7v-842.2c0-518.7,7.7-876.6,21.1-934.1c42.1-201,225.9-411.5,405.8-467l70.8-21.1v-589.5c0-549.3,1.9-597.2,40.2-696.7c45.9-124.4,166.5-252.7,298.6-317.7l91.9-45.9H5000h2995.5l90,45.9c116.8,57.4,229.7,170.3,287.1,285.2c42.1,88.1,44,107.2,49.8,706.3l5.7,614.4l51.7,13.4c145.5,34.5,310.1,189.5,392.4,367.5l42.1,91.9l5.7,1380l5.7,1380l112.9,11.5c212.5,19.1,340.7,147.4,361.8,363.7l11.5,118.7l82.3,5.7l80.4,5.7V253v-361.8l49.8-51.7c78.5-76.6,210.5-57.4,254.6,40.2c15.3,30.6,21,315.8,21,907.3v861.3l-47.9,45.9c-30.6,32.5-67,47.9-114.8,47.9s-84.2-15.3-114.8-47.9c-47.9-45.9-47.9-49.8-47.9-402V938.3h-86.1h-86.1v95.7c0,151.2-76.6,275.6-214.4,346.4c-65.1,32.5-116.8,36.4-580,36.4h-507.2V3216v1799.2H5000H1899.2V3216z M7775.4,3053.3V1416.8H5000H2224.6v1636.5v1636.5H5000h2775.4V3053.3z M6745.6,591.8C6975.3,542,7161,387,7239.5,180.3c55.5-147.4,47.9-375.2-17.2-501.5c-78.5-153.1-239.3-296.7-379-338.8l-44-11.5v499.6v501.5l-55.5,55.5c-72.7,70.8-156.9,74.6-222,7.7l-47.9-45.9v-528.3v-526.4h-162.7h-162.7v421.1c0,468.9-9.6,514.9-114.8,553.2c-67,23-126.3,5.7-176.1-49.8c-28.7-32.5-34.5-91.9-38.3-476.6l-5.7-438.3l-157-5.7l-157-5.7l-5.7,365.6l-5.7,367.5l-53.6,45.9c-65.1,55.5-145.5,59.4-206.7,9.6c-44-36.4-45.9-45.9-55.5-407.7l-9.6-369.4H5000h-162.7l-9.6,369.4c-9.6,361.8-11.5,371.3-55.5,407.7c-61.3,49.8-141.6,45.9-206.7-9.6l-53.6-45.9l-5.7-367.5l-5.7-365.6l-156.9,5.7l-157,5.7l-5.7,438.3c-3.8,384.7-9.6,444.1-38.3,476.6c-49.8,55.5-109.1,72.7-176.1,49.8c-105.3-38.3-114.8-84.2-114.8-553.2v-421.1h-162.7h-162.7v526.4v528.3l-47.9,45.9c-65.1,67-149.3,63.2-222-7.7l-55.5-55.5v-501.5v-499.6l-42.1,11.5c-141.6,42.1-300.5,183.7-382.8,338.8c-38.3,70.8-44,111-44,273.7c0,170.4,5.7,201,51.7,287.1c91.9,174.2,279.4,317.7,461.3,354.1C3373,618.6,6625,616.7,6745.6,591.8z M2974.9-1737.6c49.8-21.1,132.1-78.5,183.7-126.3c271.8-254.6,271.8-687.1,0-941.7c-141.6-132.1-239.3-170.4-446-170.4c-149.3,0-185.7,7.7-279.5,53.6c-312,151.2-457.5,537.9-319.6,838.3c84.2,183.8,227.8,315.8,403.9,373.2C2632.3-1672.5,2862-1685.9,2974.9-1737.6z M4469.8-1751c392.4-193.3,484.3-729.2,178-1033.6C4498.5-2932,4395.2-2976,4186.5-2976c-151.2,0-185.7,7.7-281.4,53.6c-388.5,191.4-495.7,694.8-214.4,1006.8c155,174.2,298.6,235.4,524.5,225.8C4326.2-1695.5,4383.7-1708.9,4469.8-1751z M6096.8-1749.1c139.7-67,287.1-227.8,331.1-359.8c19.1-57.4,34.5-157,34.5-225.9s-15.3-168.4-34.5-225.9c-45.9-134-191.4-292.8-333-361.8c-95.7-45.9-132.1-53.6-281.4-53.6c-153.1,0-185.7,5.7-283.3,57.4c-63.2,30.6-149.3,97.6-195.2,149.3c-256.5,283.3-204.8,750.3,107.2,970.4C5618.2-1672.5,5897.7-1651.5,6096.8-1749.1z M7570.6-1747.2c185.7-91.9,325.4-281.4,357.9-484.2c45.9-277.5-105.3-566.6-361.8-691c-93.8-45.9-130.1-53.6-279.4-53.6c-206.7,0-304.3,38.3-446,170.4c-260.3,243.1-271.8,664.2-26.8,916.8c147.4,151.2,287.1,206.7,503.4,199.1C7429-1695.5,7490.2-1708.9,7570.6-1747.2z M7643.3-3201.9c112.9-74.6,132.1-139.7,132.1-446c0-248.8-3.8-275.6-42.1-333.1c-24.9-34.5-68.9-82.3-97.6-103.4l-53.6-40.2H5000H2417.9l-53.6,40.2c-28.7,21.1-72.7,68.9-95.7,103.4c-40.2,57.4-44,84.2-44,333.1c0,306.3,19.1,371.3,132.1,446l65.1,44H5000h2578.2L7643.3-3201.9z"/><path d="M3130,2220.7c-91.9-36.4-111-181.8-34.4-258.4c97.6-99.5,266.1-26.8,266.1,114.8C3361.6,2197.7,3248.6,2268.5,3130,2220.7z"/><path d="M3780.7,2220.7c-91.9-36.4-111-181.8-34.4-258.4l45.9-47.9h631.6c627.8,0,631.7,0,679.5,44c72.7,65.1,74.6,162.7,1.9,233.5l-45.9,47.9l-618.2-1.9C4100.4,2237.9,3803.7,2230.3,3780.7,2220.7z"/><path d="M5545.5,2192c-32.5-30.6-47.9-67-47.9-114.8s15.3-84.2,47.9-114.8c44-45.9,57.4-47.9,266.1-47.9c202.9,0,223.9,3.8,271.8,45.9c40.2,34.5,53.6,61.3,53.6,116.8s-13.4,82.3-53.6,116.8c-47.9,42.1-68.9,45.9-271.8,45.9C5602.9,2239.8,5589.5,2237.9,5545.5,2192z"/><path d="M2578.7-2040c-128.2-67-185.7-158.9-185.7-294.8c0-287.1,331.1-430.7,537.9-233.5c132.1,126.3,143.6,306.3,26.8,446C2865.8-2013.2,2699.3-1976.9,2578.7-2040z"/><path d="M4052.5-2036.2c-135.9-59.3-223.9-239.3-183.8-375.1c61.3-208.6,273.7-306.3,461.3-210.5c116.8,59.3,162.7,139.7,162.7,287.1c0,99.5-9.6,137.8-44,187.6C4362.6-2026.6,4186.5-1976.9,4052.5-2036.2z"/><path d="M5679.5-2040c-139.7-72.8-189.5-160.8-178-317.7c9.6-130.2,49.8-195.2,160.8-258.4c183.8-105.3,405.8-7.6,468.9,204.8C6205.9-2164.4,5909.2-1919.4,5679.5-2040z"/><path d="M7153.3-2036.2c-135.9-61.2-220.1-233.5-181.8-375.1c44-162.7,189.5-262.2,356-243.1c160.8,17.2,279.5,153.1,279.5,319.6c0,176.1-122.5,308.2-296.7,319.6C7252.9-2011.3,7185.9-2019,7153.3-2036.2z"/><path d="M2550-3645.9v-162.7h2450h2450v162.7v162.7H5000H2550V-3645.9z"/></g></g>
</svg>